<?xml version="1.0" standalone="no"?>
<!DOCTYPE svg PUBLIC "-//W3C//DTD SVG 20010904//EN"
 "http://www.w3.org/TR/2001/REC-SVG-20010904/DTD/svg10.dtd">
<svg version="1.0" xmlns="http://www.w3.org/2000/svg"
 width="300.000000pt" height="300.000000pt" viewBox="0 0 300.000000 300.000000"
 preserveAspectRatio="xMidYMid meet">
<metadata>
Created by potrace 1.11, written by Peter Selinger 2001-2013
</metadata>
<g transform="translate(0.000000,300.000000) scale(0.100000,-0.100000)"
fill="#000000" stroke="none">
<path d="M805 1929 c-79 -12 -84 -14 -78 -38 4 -14 14 -21 32 -22 59 -1 56 20
56 -394 l0 -379 55 -17 c86 -26 221 -20 288 14 66 33 95 65 135 147 28 58 31
74 30 150 -1 181 -80 279 -227 283 -53 1 -71 -4 -117 -30 l-55 -31 0 155 c1
189 8 180 -119 162z m315 -348 c22 -12 44 -36 60 -66 21 -41 24 -62 24 -139 0
-50 -6 -108 -13 -129 -16 -46 -54 -93 -92 -112 -34 -18 -115 -19 -149 -2 l-25
13 0 197 c-1 215 -3 209 60 241 40 21 93 20 135 -3z"/>
<path d="M1362 1633 c2 -19 9 -27 25 -28 13 -1 25 -4 27 -6 2 -2 25 -71 51
-154 26 -82 64 -202 85 -265 l37 -115 46 -2 c26 -1 49 2 52 7 11 18 98 331
114 410 l17 85 13 -63 c12 -60 115 -414 125 -431 7 -10 78 -12 93 -3 9 6 144
424 159 491 7 34 13 41 33 41 24 0 40 18 34 41 -5 17 -15 19 -109 19 -103 0
-104 0 -104 -24 0 -19 7 -26 33 -31 17 -4 35 -9 38 -11 4 -2 -15 -81 -41 -176
-27 -95 -51 -190 -55 -210 -4 -21 -12 -38 -18 -38 -6 0 -8 2 -5 5 5 6 -8 61
-83 328 l-44 157 -52 0 c-49 0 -52 -1 -62 -32 -13 -43 -113 -418 -115 -435 -4
-29 -14 -22 -20 14 -4 21 -29 115 -55 208 -27 94 -45 174 -40 179 4 5 18 10
31 11 13 1 26 3 31 4 4 0 7 12 7 26 l0 25 -126 0 -125 0 3 -27z"/>
</g>
</svg>
